{
	"asset":{
		"generator":"Khronos glTF Blender I/O v4.0.44",
		"version":"2.0"
	},
	"extensionsUsed":[
		"KHR_materials_specular",
		"KHR_materials_ior"
	],
	"scene":0,
	"scenes":[
		{
			"name":"Scene",
			"nodes":[
				0,
				1,
				2,
				3
			]
		}
	],
	"nodes":[
		{
			"mesh":0,
			"name":"Cube.161",
			"scale":[
				0.07745754718780518,
				0.07358461618423462,
				0.07358461618423462
			],
			"translation":[
				-0.007462441921234131,
				-0.01136806607246399,
				1.0585637092590332
			]
		},
		{
			"mesh":1,
			"name":"Cube.162",
			"rotation":[
				-0.017080659046769142,
				-0.020658671855926514,
				0.1100822314620018,
				0.9935609698295593
			],
			"scale":[
				0.4653443396091461,
				0.4653443694114685,
				0.4653443396091461
			],
			"translation":[
				0.38181358575820923,
				0.7227928638458252,
				0.4398069679737091
			]
		},
		{
			"mesh":2,
			"name":"Cube.163",
			"rotation":[
				0.9961068630218506,
				-0.0823097974061966,
				-0.028313545510172844,
				0.013948087580502033
			],
			"scale":[
				-0.44761979579925537,
				-0.44761982560157776,
				-0.44761985540390015
			],
			"translation":[
				-0.3775939345359802,
				0.732257604598999,
				0.4398069679737091
			]
		},
		{
			"mesh":3,
			"name":"Sphere.060",
			"rotation":[
				0.453998327255249,
				0.5421115756034851,
				0.5421122908592224,
				0.453998863697052
			],
			"scale":[
				0.6380352973937988,
				0.6380352973937988,
				0.6380352973937988
			],
			"translation":[
				0.003390371799468994,
				0.21341487765312195,
				0.4398070275783539
			]
		}
	],
	"materials":[
		{
			"doubleSided":true,
			"extensions":{
				"KHR_materials_specular":{
					"specularFactor":0.20000000298023224
				},
				"KHR_materials_ior":{
					"ior":1.4500000476837158
				}
			},
			"name":"Black",
			"pbrMetallicRoughness":{
				"baseColorFactor":[
					0.0020634171087294817,
					0.0020634171087294817,
					0.0020634171087294817,
					1
				],
				"metallicFactor":0,
				"roughnessFactor":0.10000000149011612
			}
		},
		{
			"doubleSided":true,
			"extensions":{
				"KHR_materials_specular":{
					"specularFactor":0.20000000298023224
				},
				"KHR_materials_ior":{
					"ior":1.4500000476837158
				}
			},
			"name":"Material.014",
			"pbrMetallicRoughness":{
				"baseColorTexture":{
					"index":0
				},
				"metallicFactor":0,
				"roughnessFactor":0.699999988079071
			}
		}
	],
	"meshes":[
		{
			"name":"Cube.162",
			"primitives":[
				{
					"attributes":{
						"POSITION":0,
						"NORMAL":1,
						"TEXCOORD_0":2
					},
					"indices":3,
					"material":0
				}
			]
		},
		{
			"name":"Cube.163",
			"primitives":[
				{
					"attributes":{
						"POSITION":4,
						"NORMAL":5,
						"TEXCOORD_0":6
					},
					"indices":7,
					"material":0
				}
			]
		},
		{
			"name":"Cube.164",
			"primitives":[
				{
					"attributes":{
						"POSITION":8,
						"NORMAL":9,
						"TEXCOORD_0":10
					},
					"indices":11,
					"material":0
				}
			]
		},
		{
			"name":"Sphere.062",
			"primitives":[
				{
					"attributes":{
						"POSITION":12,
						"NORMAL":13,
						"TEXCOORD_0":14
					},
					"indices":15,
					"material":1
				}
			]
		}
	],
	"textures":[
		{
			"sampler":0,
			"source":0
		}
	],
	"images":[
		{
			"mimeType":"image/jpeg",
			"name":"cry-01",
			"uri":"cry-01.jpg"
		}
	],
	"accessors":[
		{
			"bufferView":0,
			"componentType":5126,
			"count":24,
			"max":[
				1.227379560470581,
				1,
				0.697340726852417
			],
			"min":[
				-1.227379560470581,
				-0.5258345603942871,
				-1.0304970741271973
			],
			"type":"VEC3"
		},
		{
			"bufferView":1,
			"componentType":5126,
			"count":24,
			"type":"VEC3"
		},
		{
			"bufferView":2,
			"componentType":5126,
			"count":24,
			"type":"VEC2"
		},
		{
			"bufferView":3,
			"componentType":5123,
			"count":84,
			"type":"SCALAR"
		},
		{
			"bufferView":4,
			"componentType":5126,
			"count":32,
			"max":[
				0.7475920915603638,
				0.7453916072845459,
				0.1522114872932434
			],
			"min":[
				-0.6311159729957581,
				-0.6333163976669312,
				-0.3299177885055542
			],
			"type":"VEC3"
		},
		{
			"bufferView":5,
			"componentType":5126,
			"count":32,
			"type":"VEC3"
		},
		{
			"bufferView":6,
			"componentType":5126,
			"count":32,
			"type":"VEC2"
		},
		{
			"bufferView":7,
			"componentType":5123,
			"count":108,
			"type":"SCALAR"
		},
		{
			"bufferView":8,
			"componentType":5126,
			"count":26,
			"max":[
				0.7475920915603638,
				0.7453916072845459,
				0.1522114872932434
			],
			"min":[
				-0.6311159729957581,
				-0.6333163976669312,
				-0.3299177885055542
			],
			"type":"VEC3"
		},
		{
			"bufferView":9,
			"componentType":5126,
			"count":26,
			"type":"VEC3"
		},
		{
			"bufferView":10,
			"componentType":5126,
			"count":26,
			"type":"VEC2"
		},
		{
			"bufferView":11,
			"componentType":5123,
			"count":84,
			"type":"SCALAR"
		},
		{
			"bufferView":12,
			"componentType":5126,
			"count":514,
			"max":[
				0.9939516186714172,
				0.9369487762451172,
				1.0116652250289917
			],
			"min":[
				-1.018402338027954,
				-1,
				-1.0826148986816406
			],
			"type":"VEC3"
		},
		{
			"bufferView":13,
			"componentType":5126,
			"count":514,
			"type":"VEC3"
		},
		{
			"bufferView":14,
			"componentType":5126,
			"count":514,
			"type":"VEC2"
		},
		{
			"bufferView":15,
			"componentType":5123,
			"count":2880,
			"type":"SCALAR"
		}
	],
	"bufferViews":[
		{
			"buffer":0,
			"byteLength":288,
			"byteOffset":0,
			"target":34962
		},
		{
			"buffer":0,
			"byteLength":288,
			"byteOffset":288,
			"target":34962
		},
		{
			"buffer":0,
			"byteLength":192,
			"byteOffset":576,
			"target":34962
		},
		{
			"buffer":0,
			"byteLength":168,
			"byteOffset":768,
			"target":34963
		},
		{
			"buffer":0,
			"byteLength":384,
			"byteOffset":936,
			"target":34962
		},
		{
			"buffer":0,
			"byteLength":384,
			"byteOffset":1320,
			"target":34962
		},
		{
			"buffer":0,
			"byteLength":256,
			"byteOffset":1704,
			"target":34962
		},
		{
			"buffer":0,
			"byteLength":216,
			"byteOffset":1960,
			"target":34963
		},
		{
			"buffer":0,
			"byteLength":312,
			"byteOffset":2176,
			"target":34962
		},
		{
			"buffer":0,
			"byteLength":312,
			"byteOffset":2488,
			"target":34962
		},
		{
			"buffer":0,
			"byteLength":208,
			"byteOffset":2800,
			"target":34962
		},
		{
			"buffer":0,
			"byteLength":168,
			"byteOffset":3008,
			"target":34963
		},
		{
			"buffer":0,
			"byteLength":6168,
			"byteOffset":3176,
			"target":34962
		},
		{
			"buffer":0,
			"byteLength":6168,
			"byteOffset":9344,
			"target":34962
		},
		{
			"buffer":0,
			"byteLength":4112,
			"byteOffset":15512,
			"target":34962
		},
		{
			"buffer":0,
			"byteLength":5760,
			"byteOffset":19624,
			"target":34963
		}
	],
	"samplers":[
		{
			"magFilter":9729,
			"minFilter":9987
		}
	],
	"buffers":[
		{
			"byteLength":25384,
			"uri":"panda_cry.bin"
		}
	]
}
